<mxfile host="app.diagrams.net" modified="2022-09-12T10:33:17.868Z" agent="5.0 (Windows NT 10.0; Win64; x64) AppleWebKit/537.36 (KHTML, like Gecko) Chrome/104.0.0.0 Safari/537.36" etag="O4qxuGrKhz6DL7oJa2sg" version="20.2.7" type="github">
  <diagram id="yU6ABt9eaMRDnJBrM0nO" name="Page-1">
    <mxGraphModel dx="491" dy="686" grid="1" gridSize="10" guides="1" tooltips="1" connect="1" arrows="1" fold="1" page="1" pageScale="1" pageWidth="1100" pageHeight="850" math="0" shadow="0">
      <root>
        <mxCell id="0" />
        <mxCell id="1" parent="0" />
        <mxCell id="Z5kWPRJTPKrtoBb-52i_-1" value="&lt;h1&gt;Branch Sums&lt;/h1&gt;&lt;p&gt;&lt;/p&gt;&lt;ul&gt;&lt;li&gt;Write a function that takes in a binary tree and returns a list of its branch sums ordered from leftmost branch sum to rightmost branch sum&lt;/li&gt;&lt;li&gt;A branch sum is the sum of all values in a tree that starts at the root node and ends at any leaf node&lt;/li&gt;&lt;/ul&gt;&lt;p&gt;&lt;/p&gt;" style="text;html=1;strokeColor=none;fillColor=none;spacing=5;spacingTop=-20;whiteSpace=wrap;overflow=hidden;rounded=0;" vertex="1" parent="1">
          <mxGeometry x="40" y="50" width="520" height="150" as="geometry" />
        </mxCell>
        <mxCell id="Z5kWPRJTPKrtoBb-52i_-4" value="" style="shape=image;verticalLabelPosition=bottom;labelBackgroundColor=default;verticalAlign=top;aspect=fixed;imageAspect=0;image=data:image/png,iVBORw0KGgoAAAANSUhEUgAAAbsAAAGbCAYAAABdxT4oAAAAAXNSR0IArs4c6QAAAARnQU1BAACxjwv8YQUAAAAJcEhZcwAADsMAAA7DAcdvqGQAADEfSURBVHhe7d1/bBzlve/xj/mRFMzG+WHHSdpAcoxDTMFwfZMKhUAEiEi0uUhJzhEt1pVAoALREdwcqvYPql7fqvzR6qS58AeBo6Ic3aO0IF0nVygtOqEUBRLUcxJF4BYMcUKdBkicX8SsDE2A+D7P7DPr3fXuemd3dj07fr+iye7Mendnf2g++33mmXka1LJ0VAAAxNhF7hIAgNgi7AAAsUfYAQBij7ADAMQeYQcAiD3CDgAQe4QdACD2CDsAQOwRdgCA2CPsAACxR9gBAGKPsAMAxB5hBwCIPcIOABB7UybsfrW3X6MDW/W4mwcATB0hht39enXABMqJzOk/9erD7uYYeHz7f5rXtFO/cvM199TO2L2nAFALIYWdDbof6vamw3p+boca/Ok377jbAQCYPOGE3cO3qqtJOrunVw+6RZ7H7tcdz7rrAABMkhrusxvfzPnJ9vvdbVa+ZtB+vfuU29+Ws2xM/vtlP3YhufcN2ET48FZ9kvGceR+jlL8x8u1TzL+fMaHbf1r4cQAA44UTds/er94BaebKH6Y2wnk7gmzVHe2ZTZyHvb/PDi5joDfrbzq+168V+8fu94M9SbMsz0Y+834/+aNk12Xvz9yN+bim1xNj9/vBHpkgCR4g/b8ZW7/nB2wYjd+vl/k3qefJDe1SJfWHn/iP9S0qZwAoQWiV3YM3p4LI03ST/tmrPIp05nisV38YluYvLFKBPfaW+s1F5t9sWrfLLEuoa3WR+5nw/Zldl/bVhYPrqfW6vckEx7/92C0o8bEn8OC//VFn1aYVRYJs07ot3mvv+Da9QwGgFkJtxty07lvp6sVWV3aj/0BGlZfdHGk7tLgbJjCztc1dK92mXe+Y509ofodbkONXy+xjZjYJ2mm9Cvx5yLbqd38yYdzUUqPnA4CprXr77FzTpr9Bt0H3QHtmb81feNXN5MrpPeqmWeu2utsBAHFQow4q92vxXHMx8FZ2b81q6mjRTCV1zLaD5tE/ZJtc52rxJHXw6GhNSMMnvWZay1sfKj0AqIpwwu7hrXo3t/ejWba+3T8cYav+csIsa7+xegdkz/16xv6vn+nd77WZcN2V3YEjI0z8/XP5OpNUQ9a+yad2mirXBNzv7tcmtyjV7NqmB4p1quk/6TXNVrJPEQCmopAqu4+k611PTH/66U3Snl+kmwQfvNk2W5qNefpvSt9nV5pv6sfpx16vDts78+axzicP3txrws0+vx9uP9a1XlNq5jrZqUrhd/0jY89hgtj2zrz2MXeb9ez9mmXXZ+769N890J7UHzaNBaL3N64Xq/83pR1iAQBTW4Nalo6663Uq4xCCjHCLDHucnQn+Y7nhBgComRrtswMAYPIQdgCA2ItBMyYAAMVR2QEAYo+wAwDEHmEHAIi9Ku6zY1cgACAsDe6yPCGHnXko79EyH5LQAwCUKzPkzHVvNnjwhRZ2l1w6TY0zZuvSr12mhgZaRwEAlRkdvaAv/vaZRs6e0pdfnDNLbNjZoPMvSxdKKtmgmzn365p2WSNBBwAIhc2TaZddoZnzrjQ5c6lJv6/MdMHcYqbRYHVaCMk06lV0hBwAoBpsvjQ2NZuM+9JMNvBs0PlTaSpPKPNctukSAIBqufRrV7igc9WdDbzSsy6cyo6qDgBQTQ0X2ZyxAWeDzjZl2qQrPe0qTKkAsQoAQCW8ai5jSi10l8VRkgEA6owNuNJCzkfYAQBiL4SwC5auAACEo/T8obIDAMQeYQcAiD3CDgAQe4QdACD2CDsAQOwRdgCA2It02AUfsahyk/GcAIDqinTYTcYRfBw1CADxE8mwi0J1RYUHAPERybCLQnVFhQcA8UEHFQBA7EU87D7T698/qV+6OYRrw3Mv6sSBndrT4xYAQExR2U1Ja9W7e6c26pAOuiUAEGcNallawe4pc9fRC2pZuMTNh8VWdB8o36MefOM63dqfuv7Iir/qf2iBrhkY0ftrj6rJW9qqX/9Li/7Juy798tt/1r3fcDM5t3lahjPuKw3/eamuefMSNxdPtqK799g9WtnzqPYcWC29tMZcdzcCQESdPHTApJap0S662ExmO20v7XwJXQojGnaOF0Tn9dvcgHJs2P3Pq0xAmaj6379p0ha33OcFXdNC/S//to6TOn6LxgLPBd1QOkC/1P/93nu6/kj8Ay+FsANQPyoJuxg0Y+YPOhtk3/nGDO35fcZt/bO0JzmkZR2p2V8uNxXdh3+XrhSlS/T3b7Wq6aoRPeKWFLN5+05vn1f29KJ6u90fAAAiof7DbvjS8UGX9qlWrv2zjn/fn97TyoS7yfeNDzJuN9MtQ+6GiW1ct0Zzu3Kne7R+m/sDAEAkxKCyK8buo7tO83KmsUoutY8u9/Z5+SrFPKjsAKA+RDvsTl6qIfPPb3YM5GSTfvvhkO793nBWk+QvOz5z16R/2rdQuu49vZ75+C2f6Zct7voEqOwAoD5Eu4OK5XUqyWha/PDvNO93l3tXvQ4qM5vT8/l4f3Pdp27OVHLJVv3p9y36+5NuwbienzNMtdesa94s/Jh1r2eLTtxtgj7HQTqqAIiw+PbGBADAmeK9MQEAKC6SYReFEQeisA4AgHBEMuwqaFcNTRTWAQAQjkg3Y05GdUVFBwDxE+mwm4zqiooOAOKHDioAgNgj7AAAsUfYAQBij7ADAMQeYRdl3U9q4MAWbXaz0ZUa+XwPpxoDEFGEXYRtXn+DtG+XNrr56Nqh9a8d1ZLOR908AEQLYRdZj2r5oqPa+dAONx9xPf06uOhmhjcCEEmEXURteO5mLRnsr4Oqzve0fr1PumU91R2A6CHsIulR3btceqP3aTdfH555/ZCGF3XUwT5GAFMNYRdFPR1akjykV+ttENhtT2jn4EKteW6tWwAA0UDYRc5a9d62UAdfe0LPuCX1ZGPfUTUtXaYNbh4AooCwi5ruZepMHNW+eu3G37NLb+gG3cthCAAihLCLmPo53KCQHXr1vREOQwAQKYRdpNjDDUbU93qdHG5QwDMP7eUwBACRQthFSOpwg71aX28dU8bhMAQA0dKglqUVDOFm7jp6QS0Ll7h5AACq4+ShAya1TI120cVmuiR1aedLGHabyg4AEHuEHQAg9gg7AEDsEXYAgNgj7AAAsUfYAQBij7ADAMQeYQcAiD3CDgAQe4RdrXU/qYEDO3XCTXumwugAOa/5xO4nGQIIQE0RdjW1Vr3fv1p9m9ZobpeZXjqqJXe/GP8TJm97Qu329bpp2+kb1LOd82YCqB3CrqZ2aP2qe8ZO9NzTr4NqVGu7m58iBk6OuGsAUBuEHWpsre5Y2qiDfU+7eQCoPsJuEm3evlpLkm/r11Nhv13PFrfP7gHdoinymgFEBkP8TJINz72onuVntK3rkToelbxMNvju1tR87QDKxhA/dSYVdNIbm6boxt7bVzlbVzKSOYAaIexqbCzoMjqqTDHeiOzJQ3p1ir5+ALVHM2ZNPao9B1Zr3LuVfFs9q57QM242drxmy4Vuxoj76wVQFZU0YxJ2AIC6wD47AACKIOwAALFH2AEAYo+wAwDEHmEHAIg9wg4AEHuEHQAg9gg7AEDsEXYAgNgj7CrV/aQGDmzRZjdbVfa0W7uf1AY3G11r1bt7p/aEMoxPmI8FYKoi7Cq0ef0N0r5dtRm9oGeX3tDVuiPqowX0rA5xzLodWv/aUS3pfNTNA0BwhF1FHtXyRUe186Edbr7adujV96Rb1kd7w7+5c6EOvhbiiZ7tkECLblYvQwIBKBNhVwFvqJrB/pqOSffMQ3ujveHvflJrzA+AfaE2Oz6tX++LfsgDiC7CrmyP6l47Ll3v026+Vp7WvsFGdd661s1HS7WadZ95/ZCGF3XUZt8ogNgh7MrV0zFpA5Bu7H1bWr46ght+26w7or7Xq9Csu+0J7RxcqDXPRTPkAUQbYVeWteq9LeT9UkFs26++5EItj1gPxVSz7t6qjcC+se+ompYuq4PeqACihrArR/cydSbC3i8VhOuheFuUDkNYqzuWNupgXxWbdb3eqDfoXg5DABAQYVeGmh5uUIjtoZiI0GEIoR5uUIjtjTrCYQgAAiPsAqvifqlAotVD0R5uMPze/qo360a+NyqASCLsAqr2fqkgIrPhd4cb1OZ4Qw5DABBcg1qWjrrrZTB3Hb2gloVL3DwAANVx8tABk1qmRrvoYjNdkrq08ybKJkJlBwCIPcIOABB7hB0AIPYIOwBA7BF2AIDYI+wAALFH2AEAYo+wAwDEHmEHAIg9zqBSTM8Wnbh7oTS4S3PX1XqQ1uA2PPeiepY3urmUgy+t0crQTs78qPYcWC3/0w73scuzeftOdS9yMxmisG4AwsUZVKrCbNjvnq2DgyNuvj4M73tec7vWpKfQNvjdT2rABJ1MiIT+2BXYuG5sfbxp09sa1oiGBtwfAIBB2BWwebupYAb36tcn3YIpzg5rNFQH1dKGW69WU0RO1A0gOgi7fHq2qHvRUW2rg6bL2kgNazQ0f4tOHNjppi3a7G6Njkd173LpjV4+NwDZCLtx1qr3toU6+NIjkzs4a5malj8wFkjbQxoGp7tVrWrULS396ebCbYML1b07SiOlR2v4JQDRQtjl2PDcd3XL6V112bnhmYfuydh/9bzemLM6vMBTdqW7sfdtDSdmq93NTz5b1TXqYB9VHYDxCLssa3XH0kZpkQkJVx15vRu9+RfrbHTsHXr1vZA612wb0pBm68oIv36vqku+rV/TAxNAHoRdlh1av8qvjFJTzz4TGPbQg6576qt5rPtJbQyt0nla+wYbs0YHtx1Wmgb7I9LU66q6157QM24JAGQi7GJjrXp3+51HzPT41erbFF7vyY3rXLOoe/xuRefYQ6/nLFUdgCI4qBwAUBc4qBwAgCIIOwBA7BF2AIDYI+wAALFH2AEAYo+wAwDEHmEHAIg9wg4AEHuEHQAg9qZG2HmjbNdo/LWeLTpRq6FvavlcAFDHpkTY2ZMWa9+u2py0uGeX3tDVuqPqIwS4cfc4+TEATGgKhJ0dZfuodj60w81Xmx1aR1kjBFRF9zJ1ipMfA0ApYh92qdGrazsUzTMP7dXBRTdXdfw7r1p9bz9VHQCUIOZhZ8c5k97orfVQNKnx3zpvXevmQ9b9pNbUtFoFgPoW77Dr6dCS5CG9OgmDrm7sfVtavroqnWI23Hp1hAZOBYDoi3HYTXIHjm371ZdcqOWh71ObrGoVAOpXfMPOduBIHNW+SevAsUPrXzuqJbeFfGjAJFarAFCvYht2NT3coJCefh1MhHkYAocbAEA5Yhp29nCDEfW9PtkdOJ7Wr/eFeBjCpFerAFCfYhl2qcMN9mp9BJr6wjwMIRLVKgDUoQa1LB1118tg7jp6QS0Ll7h5AACq4+ShAya1TI120cVmuiR1aedNlE0ktvvsAADwEXYAgNgj7AAAsUfYAQBij7ADAMQeYQcAiD3CDgAQe4QdACD2CDsAQOzVb9h1P6mBAzt1wp92hzy6QAU2b69svTY896J33z15zoHp35aatlRlvDwAiJs6DbtHtefxq9W3aY3mdtnpeb2hG7TxuSqNDB6ADaPuOW+rx1uvNdp2+gb1bC/1RNBr1bt7pzbqkA66JVl6tqhn+Rlt8x97cKG6IxTyABBV9Rl23a1q1Rn9NX2i5x3662l3dVLZgVUbs4bgsSOWDy/qKKkC2/Dcd9X62hq1PzTklmRKDe8znHEiaO+xQx1CCADiqT7Dzo0Cnq5qTMXTHYkhfawRDQ24q9a2IQ1ptq4sIZCeeegerSw4fM9CtSYyX6Otbm9QkxrV2u4WAQDyqtNmzB1av2qNet67Wj1239XdJlO67onAkD5Pa99gY9b4dZu3r1a4Y0KkmjpPHFgtvWSbMqXW+ZPffAsAUVanYZfa4Pe07PX2XfXsm63uAh06am3jul06uGh1uhPJ8j4zn9XkWgkTpI8/4DV12te9smetrpwjDR2LQkULANFVn2HXs1q3JI5q27qnvVnb/Nezb0RLbotCZ42ntdJ1IPECaaBVrckzymzZLM9RDSWl4X3PZzR1ppo2s5pNAQDj1GllZ2XuB1urO5Y2SqeH0h1DIsEeHmF7jf7LWIeV8u3Qq++NqGn5d9OjnnsjsicP6dUIjMgOAFFWtyOV2y7+PctNwPkGd2muq/QmU/Z6meqz65F078kJ9WzRibsXupkxB1+yTZap61mPn3xbPavCCFIAiL5KRiqv27ADAEwtlYSd/SsAAGKNsAMAxB5hBwCIPcIOABB7hB0AIPYIOwBA7BF2AIDYI+wAALFH2AEAYo+wAwDEHmEHAIg9wg4AEHuEHQAg9gg7AEDsEXYAgNgj7AAAsRdC2DVodPSCuw4AQPhGL+TLmYkHbfWFUtl98bfP3DUAAML3xeefumvlCSXsRs6eoroDAFSFrepGzhxzc5at6Eqv6qwKwy71ZF9+cU5njw/q/GefFig1AQAIxubJ+ZGzOvvR+/ry3OcmckzmZE4e/7K4BrUsHXXXyzNq7m6rutGvpAtfmslcyi6r7GEBAEjzws1MF11spkvMVXPZYOq1dOgVV3nY+cFmA88GnQ09L/wIOwBASLxqzoabDbvMoKtZ2BlesLmA84LODzsCDwBQKRt0ftj5IVd6VWeFE3aWH265lwAAVMSF3bjL0oUXdh4bcu4yjcADAJQrM9RsyLnLgEIOu0yEHAAgLMEDLlMVww4AgGi4yF0CABBbhB0AIPYIOwBA7BF2AIDYI+wAALFH2AEAYo+wAwDEHmEHAIg9wg4AEHuEHQAg9gg7AEDsEXYAgNibMmH3q739Gh3YqsfdPABg6ggx7O7XqwMmUE5kTv+pVx92N8fJw1v1SdbrNNPen7kbg3LvW9n3L0UtngMAoiuksLMb0x/q9qbDen5uhxr86TfvuNvjw6sQf3qTjv0m43XO/YX+MHe9Cb2d+pX7OwBAdIQTdg/fqq4m6eyeXj3oFnkeu193POuux8FTO/VAu9Rvgu7ax9wyz1bd0W4Cb7hND9BUCgCRU8N9duObOT/Zfr+7zcrXDNqvd59y1VTOsjH575f92IXk3rdYs6v522+3ScN/1PNZQefbqt/9KSk1fVPf9h/DNXdmrW++ZVa7rQzdevjNjSZcx9bNn3Kqx0qfAwCmgHDC7tn71TsgzVz5w9SGNG91Y6ufjKa/3xz2/n7cBnmgN+tvOr7XrxX7x+73gz1JsyxPKGXe7yd/lOy6FN2g26D7oW4/MXa/H+yRbv9pocBr03xTverER9qUWjDOpl3v6KwS6lpdStDmyFz/m3/sFlpJ/eEnbrmZnh8w1WO5+0ILPgcAxFtold2DN6eCyNN0k/7ZqyCK7MN6rFd/GJbmLywSDI+9pX5zkfk3m9btMssmCBQTvj+z69K+unAoPLVetzeZIPm3sY1+KY99duiwuzY5Hry511vH2/87lRkAlCrUZsxN6741VjmY6uqsqYYy92FlN0faDi3uhgnMbG1z10rnV1nzO9yCHL9aZh/ThMZPM9dpvQr8eVo56xKuH+tNU0Vr7tfZNwgAJarePjvXtKmmFi9AbNA90J7ZW9N26PD+chLl9B5106x1W93tmQ7rmF3fIiHz+OpvaqaSOrAr3/0BAJOlRh1U7tfiueZi4K3s3prV1NHiBc8x2w6aR/+QbXKdq8Ul7/vaqjt+d9hron0gdz+j5359+/qENPyOfuf3QH32Ix0zF0WbagNz76W/77AqzwEA8RJO2D28Ve/m9n40y9a3+4cjbNVfTphl7TdW7zi0rIrrZ3r3e20mXHdlH/rgqkzL3z93+08DHBv32Bo9b6pV22kmu2ONeT6vWdZUiu33Z3RgSTU5zlz5SJEOJRO9N9lNsY9vfyRnX2MYzwEA8RZSZfeRdL3rielPP71J2vOLdJPggze749DSf1P6PrvSfFM/Tj/2enXYnocZPQ5THTvs8/vh9mNd6zWlZq6TnYqHn+2IY/dHzjeBN3Yf93xz14yrXL2//82JsX2D5n2Zaf428zi98e9N5jokNf/b/vJ+/fNK6Q8/+VZWiFf+HAAQbw1qWTrqrtepjEMI4tad3h5n972548INABBMjfbZAQAweQg7AEDsxaAZEwCA4qjsAACxR9gBAGKPsAMAxB5hBwCIvSp2UKHfCwAgLA3usjwhh515KO/RMh+S0AMAlCsz5Mx1bzZ48IUWdpdcOk2NM2br0q9dpoYGWkcBAJUZHb2gL/72mUbOntKXX5wzS2zY2aDzL0sXSirZoJs59+uadlkjQQcACIXNk2mXXaGZ8640OXOpSb+vzHTB3GKm0WB1WgjJNOpVdIQcAKAabL40NjWbjPvSTDbwbND5U2kqTyjzXLbpEgCAarn0a1e4oHPVnQ280rMunMqOqg4AUE0NF9mcsQFng842ZdqkKz3tKkypALEKAEAlvGouY0otdJfFUZIBAOqMDbjSQs5H2AEAYi+EsAuWrgAAhKP0/KGyAwDEHmEHAIg9wg4AEHuEHQAg9gg7AEDsEXYAgNgj7AAAsUfYAQBij7ADAMQeYQcAiL1Ih93m7Tt14oCbdj+pDW45EETW92j7o24pgKkk8pXd8L7nNbdrjeauekLPuGVp3U9qIO8G7FHt8Tdu/hRyWG547kXvcff0uAU5qrmBTT32i+rtdgvScl/3Fm12t4TDPX7e9zL7uQeeW+uWh6TgZ51S7PPYuM58f8x3qGffiFsCYKqp22ZMb+P2falv0C0Y56i22ZD0p3xhWZa16t29Uxt1SAfdkmyp27u1a+y51z3tbqtUKlCWn3xbw27JGPu8q6WXxl7ztsGF6g4raHu2mDDp0FDewEg9d6v/w2TT29LyBwr+EAiq+Gc90ecBAPUaduZX/saWvV6A/dUtqpUNz31Xra+tUftDQ25Jjp7VuuW0CbrQAm7M5u03a2jTGq183S3IslCtiRENDbhZY+BkWJWMCdnbzqin6xG96pZksa85cVQ7H9qRmt/2hHaaYFrSGULQTvBZT/h5AIBRn2FnNqbtVQiTUjzz0D1aWaRi2dy5UMMnW7Oa9MKqcDauu0frt7mZcZ7WvsFG3fK4a7q0IbG8UQf7wnifntbKIpXxhvmzpcF+U125eVOJdS8yV+a0Vt50PMFnPdHnAQBW3TZjTmyhutOBk2//VjWs1ZVzpKbls7XPb8J86aiW3F2b5/f2Tb1kcs6+5sevVp+tAmsZBF5T5071LD2knk1vazgxW+3uJgCYTDENO1OJ+GHjBc4ZU/HUKvCkgy89kq5y1LNLbyQb1VqDrb7XccVrbvRfcxU6ihSyaPXYc9sqsH22mpJnlNGqCgCTJsaVXYae/hp1Xtihv56WWufXKGAydT+pNYtG9Ma/uObGnke8qrJp+eqQe2SO98yxM+b/o9qW0dTpNW2eHgqpUxAAVGZKhN3m7au1JHlIr2bu7/K7sod8SMLGvpyAcZ039mU2J1bpuaXsCtLuP1RudeWaGkM9HML7MZHZ8/NR3Ztnf6F/OEZY+zABoFQNalk66q6Xwdx19IJaFi5x8+GyG8c1J59Xu9/LL812wTcB5ubSBl0vSLtBv9ts6H3+8iy2y/oDXhBt68podpxI7mM7B18a2z9mO2j0mI19Sr7HL++5sx/XZ6q5Ta7jSu66Jd9Wz7iOJe69y3tbIf76ullf1mNkfyaZ70eaWz977OT4z7SQgJ+1k+/5vffP9uycpM5NACpz8tABk1qmRrvoYjNdkrq08ybKJlKnYRcO+/jdc4Js9MMzec/tgqtKh0cUZSvax2/QUL4grAHCDqhvlYSd/aupx1YDByYpbCbxue3G/sSByQi61IHfJyYx6ABMbZGv7LzjtaxAzW7AmKzvUd4mbQD1ILbNmAAA+GjGBACgCMIOABB7hB0AIPYiHXYTt8ICtcP3EahfkQ67CnrOAKHj+wjUr0iGHb+gEWV8P4H6E8mwy/cLunPVNXq4a5qbyzVNd665Rt9tc7NAFVHhAfWnPo6zmz1HD985XW+++LH63KIsbQv0o45z+tedp1X6eNUJffeeBbpq5NS4+9lgvWuem/Gc14FX/qJX7Mn9IyC1fjVeJ+8zaFaTmz2y/329cNjN1Ir9nJclpOMf6+e7k25hleW8buX5vgCojdgfZ9e6aIY0cCp/0Bmd30joSH+ADZDdaN6T0OmB827BeHZj/vMX/SkqQWcD+hpdmzylYbekNkzlvGKGDr/i3o/9SV21bLHunO1urgnz2pdN15HjhT+z8JnnvDPjdZvvwQE1a23BFgYAUVUHYZfQbe3S4cECGznzy3vFvKTeLbnKMBswWwUWqhIjrHNVs06bDe8Lg25BWVKBGazJ97xe2ZkR+IeTOmICcM4sN18q70fGAnW62SA6V5kq/PgpvVZmQdfatVg/WjNHrW6+JLOnaabOaSj9Q+e8hmpUUAIIV+TDrrWr2dvIFaqsOq9vLlr1jZfUC3XaDNW3OzpNqTVlQvIu84Pm5Vo1XfrOJHV4JKG7/JD01uN84R9eACIr4mE3TZ0LpunIh4U2cgldW6WNz1XLrjFVSGoq3DFmPLs/zb/f2OQ3+aWqqnG3B604JplXZY2YKqsm++ym6c6OhI7sn4xK3Fa07+tfP56h++zntEx6OTJN2gCCiHYHFdvsVaTjiW2aui9xquzOCt79F3w6QYcDG1ALNHPgL3r2QER+0XudJuy+pNI3vOM73fhMxRSgSdd7z9rPBbhP6v27ys1lKaGjSe5nHOgzz+1ckmG4pM/T9vJdrK5kaj1Tr938+JqMzjkA4jvqgd1Ar0gW2iilNkRz+svf8JQWdhOtR7b8oeL3nCyw4Q/aw6+MsBuTWgeVscFObexVfi9Q++PFq45KDUoXNrmDs3uC9UYt9bPOkmd9y3ocAKGoJOwuVmNzhUNpjqqxaY67HiKzQV97w1d68/dn829U2lr1Dy1J/b//+FwjblFQV8yfpRsT5/TWwSKPYTZ49y1p0LsHTuuDz92yIoaOnNbed3Kns+6+5/XncbeZqdjz53PZ5VrWNl2ffOA/bhDTdd11Cenj0/rzJ25RCSoOOmt2QitNzh56J1liUHylDw5mv1eHps/QjV8M6ee/HQr02kv6rHN56ztdyWP++zxNK/5rs+Ynz+rfj0SkygemkM/OHDO5ZoLNBlx6skFXx5Wdt3Et0lwVpNrKVqBaSFdXudVXsGa+akoFzjQ35wt6vF05lV1IFWngym68ib4XhZRbkY17z2t5jB+ALDFsxrQbV9vNvsBG3GvGK3KQOQAgdmK7zw4AAF/szqAy8WoDk4fvJ1B/Ihl2FZSaQNXx/QTqTyTDzscvaEQJ30egfkU67PgFjSjh+wjUr0iHHQAAYaAZEygR30egftGMCZSI7yNQvyIZdvyCRpTx/QTqTyTDLt8vaHt6sMJD7dhTgAUdkBQoDxUeUH+ieyLoTFU5KbQ9JdlifWexdCjfyYHtKcnuvlJ3XNesldfN0OXpkwFPPhv8991U43XKej+atfBvwU4kHQp7bs3VC7Sy+bz21upEzFF43QA8lZwIOpKVXa7WRTOKjkbe+Y2EjvQHPCHxPQmdHiiwwbS3e0PovK+fv2inCs70Hyob0Nfo2uQpDbsltWEq5xUZ78f+pK5a5g9IWyvmtS+briPHaznagHnOO5t1dr973a+c0syav24AYaiDsEvotnYVHo3c/PJeMS+pd4Ocwd8OCFvwJNJmw94xvbKhbKqkc5U9Ofb7emHQLShLKjCDNfnaEbsz3o/DSR0x79OcWW6+VN6PjAXqdLNBeKOjHz+l18occMCOXhB0RPjWrubsEdnPnNabx6epbVGh5nQAURX5sPM2OGYjVyh4Oq9vLlr1jZfUC8WGeZmdUFvjOWmR2TiaUPCmgBvJaunbHb0ArgkTkneZHzQvT8bQOsnzWd+VITPflJju5gDUi4iH3TR1LpimIx8W2sgldO2884WrvnLMmq4m87ht+ijdhHlAzbpvVcL9QXF2f1o6JNOT3/SVqqrG3R6RMC2VV2VlVjxVZSvthI7sr/1wTkODn2p4XvNYs6XddzxuPEEA9SDaQ/zYZi/b5FigEit3IE9f3gE98z3nBOtRc7bThLdPsfRKz4bwXfPcTJZgg9OmBjM9F+A+NuDzDPxqlTAQau5nHOgz996nZvPjZbzhgdIG/k29XhdwJuBf/niGVpgfQsEHDQZQqdiOZ1d8NPLUiONz+oOMuJ0tb9h5G8icgWEDhF3+UPFHEy+w4Q864ncZYTcmtQ7BRipPSW34Vf7+TPs+BhqpPPUZjxtV3hNshPa8n3UZ7Od77Yflf+cAlC+eYZcvdDKFUG3l3wCmNrBtH/shmzsfAZMQdhUHnRU47Mbz1qOMaj6MsPN+yGjiahRAdVQSdpE9zq61Y55u+uKsthc4nqqzc4Hmnh7S7mNfuSWlsuF1tf7hvzTrxjnmjZp2uW60x1Clj7f7Sh8cPK+rb71S3/GOrZqly49EI+jsBvsfb23VyrbL9TXz0c1vK+cYwOm67rqE9HGQ48US+m+3ztTM9HO6qdAxioXMTmilydlD7yTLDpwr5s/SjdM/C3ycnXe/xDm9FWR9vR8Gi933oFlzj/1FT/0xIgdbAlNQJcfZRbSysxsZ282+QBUxUdUHAIid2O6zAwDAV0nY2b+KnIlXG5g8fD+B+hPJsKug1ASqju8nUH8iGXY+fkEjSvg+AvUr0mHHL2hECd9HoH5FOuwAAAgDzZhASPi+AtFFMyYQEr6vQHRFMuz4hYx6xvcXiJ5Ihl2+X8j2vIQPd01zc7nsKcCCDkgKVAcVHhA99XEGlaqcFNqNQJBvxAHv+TKGhgk6KkGVpUZWCHbW/4rlvCdHyhg1oVzjR5KYpNeeZ0ii1Amy/R9hwYZLAhBM7M6gkqt10Yyio5F3fiOhI/0BwsiG4z0JnR7IdzJhE4LeiAJ24NaxwVvXFqwqa8kG9DW6NnlKw25JbZjKeUXGe7I/qauW+QPS1oYN19TnkfpMahV0Nsx+tEI6fNwtyGS+R6mx/VLr9fLxhO6qs4F4gamiDsIuodvazcam0Gjk5lf3inlJvVtylWECw1aBhX6Bz56mmTqnofTG9LyGIjKiS+cqe3JsU1ENugVlSQVmsCbf83plZ0bAHE7qiAnAObPcfKm8HxkL1Olma8kLraBBZL5ba+1wQnmrevMDoCOh4YwfYX1/Mj9CGmeos4Y/AgCUJvJh19rVrKuOnyr4S77z+uaiVd94Sb1QrEnyTFKHRzJ+oZsNtG0yLBi2NdS3u4ZNdzDfhdN6tuDYddM1pzHze2FbBGwzbxk/AgBUXcTDbpo6F0zTkQ8LbXASujb0ILJVzPv6149n6D5TAaUGGy09ZOz+pR/Z+2VNfpNfqqoad3udNX11rkrt63ythqN1X7Vs7P0q3FFpMqQ6R9mK1Q6I+/JxaWZTlNYPgBXtDioTdDzxOgeUMWq1z7t/gZHKu5Kpzgh+B4RadsiYkNdhIthI5eM7efiCdapIvR92P1Wp97EBb8LRzWXJ0+FjYqnHmzlQwoC6OZ1qMg2Xcv8M3vuXNUr52Osa+26kvjtz+iP0XQFiJLbj2dkNzIpkoY1S5RuWvGFnA9ar5sY25vlDMb/8oeL3Hiyw4Q/a27OMsBuTWgdbhQR931JBp/J7QuZ5b8tR/HuRX5DPMJ/xYZf6/rV9nLke9r0tMugwgIrEszem63jyZqENWluzulStprTpak13Mkg1pSp5vqSNZN/uzF6D/uRv/JJ6YdxtZipzA1xLFQddWCKzD/W8+j4+r6b2r6d7pXr7l0c+VR9BB0ROZCs7b+NapImynF/3Ka6ZstHN+jKqq9SG3QScr6zmtvCNWy9P0GPOyqnsQqpIy6rscp+7vGPZyqvsCrzujO9D1mcSseMxgbiJYTPmBM1BXjNekYPMAQCxE9t9dgAA+GK3z27i1Qaii+8vED2RDLsKSk1g0vH9BaInkmHn4xcy6gnfVyC6Ih12/EJGPeH7CkRXpMMOAIAw0IyJusP3AkBQNGOi7vC9ABBUJMOOX+4oBd8TAKWKZNjl++VuTw9WeGgXewqwoAOSot5R4QEoVX2cQWWi04NNMBRQfu68h3nPZ5h9TsSgw8FUW2pkhaDnxKxM6jndjFHzIY+yhuup7WsHEA2VnEHlYjU297jrZRpVY9Mcd706WjvmqePMkH577Cu3JFtn5wJN++Co/uMTt2AiNhxXT9cHAw2anzintw5+rhF3U6pKvFILjvxFT/3+hPYek5Yt/7qu/ttp/bnUx68aG8KL1XLslBrmTNcnH5zVB5+7m6ps6Mhp7X3HTeY9WXnLPM06VqPnt5/XLY1695VD+j/77TrU7nUDiI7PzpiNT4MJNhtw6ckG3cRhZyMx4hK6rV2Fh3RxQwG9G+QM/rYKLFglNqurMWNooTOn9eZx6apvJFLzk6hzlT05tqmoBt2CstjArLDJ98x5nXVXA7GhZSrmTjdbGvPjo2M6lRyAikQ+7Lwxwo6fKrih67y+WRo4FWD0g6ReKNLc2do0XTqeTD+eHcLFa75LTFNratGk6dsdkQ1+W6J247bNTqit8Zy0aLEJymtS05o5k/5ZAKgvEQ+71MCpRz4sNJZcQtdWayBPrwq5JjUG2iunNNw4vaQNrN23ld4op6fFboDPVFU17va62HinOgF567ssoSP9NRq3bdZ0NZn3rU0fucFu/6IDatZ9qya/0gZQP6LdQWWCjifewJlFBnidSL4BPdODcWZ2XJlgPWrO66wxQ4cDNO3ldjAZU85gqKkBcNs+LqXjTnZnnyylDIqb772P2ucBoCZi20HFdjyZe3pIu/N2TJmmFf+1Wec/+LjsjiNXzJ+lG3M6qIxcfrlWLjivl3ec0AduWeviZt1oQuHfj0xcQdpQue+mZq28LnOaocu9zhypDibfybrNTIulQ1mdZCZw2eVa1hasg8pYB5PzWnhdQsP739dzb9j5ZBmB8ZVGrpihmxLntXfC9+S8/ux3bPnb9NR7++Kgttv5Et5PNUzT9UvNa81cz9kJrWz5KqdjEYC4i2cHFdfxJN1RJJftSKJTei3s7u+HkzpiqpG70s1ktoNMsabUbH27bVNb7uRXYEm9MO42M9VdhRLsPanImaQOjyS0In2Mpe2wYsL643JCGsBUFdlmzImaKG0FtSJZzvFvqSa4rkY368s63i676a3mx5QVkG5izRL0mLPUa1Og1zT+PSvrPbHNj8tURrNp9ucRteMeAdRGJc2YEQ07u3Gz3ewLbMQnOsgcABA7MQw7AACyVRJ29q8iZ+LVBvieAChdJMOuglITUwjfEwClimTY+fjljnz4XgAIKtJhxy935MP3AkBQkQ47AADCQDMm6g7fCwBB0YyJusP3AkBQkQw7frmjFHxPAJQqkmGX75e7PT3Yw+nzI+ZKDT9T0YCkqDtUeABKVR9nUJno9GBlDfnizreYdU7MDN5zNquplGFoaiw1XE/Qc2JWJneIoJqdL9Q7n2aesesi+LkAqK7YDvHja+2Yp44zQ/pt3qF+zIa4c4GmfXBU/1HqUD92A7p6uj4YaND8nCF+LHvC5X+89pzePXO55itZ2lA0NWEDerFajp1Sw5xgQ/xUamyIIDMdk1beMk+zvGGL3B9Uyyfm/fef15uSunzxLF1++pT2F/g+AIineA7xk2aHk1Hh0cjdUEDvllxlmMCwVWChKtE83lo72kIEh93pXGVPjm0qqkG3oCw2MCts8j1zXmfd1UDsjwxTTXe62bLMTqitscjQTwCQR+TDrrWrWVcdP1Wwua7z+mZp4FSA0Q+SeqFYkJ05rWcj2jzWt7t2zZZFtSV01cin6puEdQn+eQNA5MNumjoXFBskNKFr550vXPVNArtv60emcsqeFuvO2fbWVFU17vY1c9Tq3TvKUp2AvPVdltCR/kmofF0VT1UHIKhod1CZoOPJRAO8TsS7/4JPCz6+1ylDEewI4XWemaHDATqo5HYwGZMsYzDV1GCubR+XMoiq6wjk5rIE7GQS2c8DQE3Edjw7u3ErPBp5aoM7p7/8XoHVCLv8oeL3nCyw4S/UI7SQMsJuTGodgo1UPl5ZPzS8npXljFRuVPSaAcRB7Maz80zUZNXWrC6d0mu16P4eQN/u9/XzF3MnfwOd1AvjbjNTkKCLBNtpqFjzcvjsvrqmIvtuAaCYyFZ2E1UOxau+YlIVYVejm/Wlq6sC1VcEjuvy3hMTMtmCHm9XTmU3/j0r6zi7cis7737Ta3pcIYDoiWEzpt0g2272BTZuXpNWkYPMAQCxE9t9dgAA+GK3z27i1Qb4ngAoXSTDroJSE1MI3xMApYpk2Pn45Y58+F4ACCrSYccvd+TD9wJAUJEOOwAAwkDYAQBij7ADAMQeYQcAiD3CDgAQe4QdACD2CDsAQOwRdgCA2CPsAACxR9gBAGKPsAMAxF4IYdeg0dEL7joAAOEbvZAvZ0o/LXwold0Xf/vMXQMAIHxffP6pu1aeUMJu5OwpqjsAQFXYqm7kzDE3Z9mKLthgXxWGXerJvvzinM4eH9T5zz4tUGoCABCMzZPzI2d19qP39eW5z03kmMzJnDz+ZXENalla2fBgo+butqob/Uq68KWZzKUdccwuBwAgDF64memii810iblqLhtMvZYOveIqDzs/2Gzg2aCzoeeFH2EHAAiJV83ZcLNhlxl0NQs7wws2F3Be0PlhR+ABACplg84POz/kSq/qrHDCzvLDLfcSAICKuLAbd1m68MLOY0POXaYReACAcmWGmg05dxlQyGGXiZADAIQleMBlqmLYAQAQDRe5SwAAYouwAwDEHmEHAIg9wg4AEHuEHQAg9gg7AEDsEXYAgJiT/j9w4fYb9HncLAAAAABJRU5ErkJggg==;" vertex="1" parent="1">
          <mxGeometry x="40" y="220" width="443" height="411" as="geometry" />
        </mxCell>
        <mxCell id="Z5kWPRJTPKrtoBb-52i_-5" value="&lt;h1&gt;Solution 1&lt;/h1&gt;&lt;p&gt;&lt;/p&gt;&lt;ul&gt;&lt;li&gt;I think we can use preorder traversal here to do this&lt;/li&gt;&lt;li&gt;Once we reach a leaf node we add the currentSum to the result array&lt;/li&gt;&lt;/ul&gt;&lt;p&gt;&lt;/p&gt;" style="text;html=1;strokeColor=none;fillColor=none;spacing=5;spacingTop=-20;whiteSpace=wrap;overflow=hidden;rounded=0;" vertex="1" parent="1">
          <mxGeometry x="40" y="700" width="420" height="260" as="geometry" />
        </mxCell>
        <mxCell id="Z5kWPRJTPKrtoBb-52i_-6" value="&lt;h1&gt;Solution 1 Time and Space Complexity&lt;/h1&gt;&lt;p&gt;&lt;/p&gt;&lt;ul&gt;&lt;li&gt;Time Complexity O(N) because we have to traverse every element in the BST&lt;/li&gt;&lt;li&gt;Space Complexity O(N)&lt;/li&gt;&lt;/ul&gt;&lt;p&gt;&lt;/p&gt;" style="text;html=1;strokeColor=none;fillColor=none;spacing=5;spacingTop=-20;whiteSpace=wrap;overflow=hidden;rounded=0;" vertex="1" parent="1">
          <mxGeometry x="40" y="940" width="420" height="260" as="geometry" />
        </mxCell>
      </root>
    </mxGraphModel>
  </diagram>
</mxfile>
